<?xml-stylesheet type="text/css" href="../css/afa_virtual_booth.css" ?>
<svg xmlns="http://www.w3.org/2000/svg" version="1.1" xmlns:xlink="http://www.w3.org/1999/xlink" preserveAspectRatio="none" x="0px" y="0px" width="1280px" height="756px" viewBox="0 0 1280 756">
<defs>
<filter id="Filter_1" x="-51.827733273749956%" y="-56.627031884153745%" width="203.6554665474999%" height="213.2540637683075%" color-interpolation-filters="sRGB">
<feFlood flood-color="#FFCC00" flood-opacity="1" in="SourceGraphic" result="result1"/>

<feComposite in2="SourceGraphic" in="result1" operator="in" result="result2"/>

<feGaussianBlur in="result2" stdDeviation="16.666666666666668,16.666666666666668" result="result3"/>

<feComposite in2="SourceGraphic" in="result3" operator="out" result="result4"/>
</filter>

<g id="hitspot_satellite_0_Layer0_0_FILL">
<path fill="#00FF00" stroke="none" d="
M 111.25 73.75
Q 109.99375 70.83125 106.95 69.7 105.75 69.2 104.35 69.35 103.25 69.45 101.3 70.1 101.159375 70.2533203125 101 70.4
L 99.3 69.4 95.75 75.5 97.2 76.35
Q 96.63359375 77.79921875 96.3 79.3 95.35 77.75 93.85 76.95 92.7 76.35 90.75 76.05
L 90.75 61.85 88.45 59.4 88.45 57.2 87.9 57.2 87.9 58.85 85.95 56.8 85.95 55.6 85.4 55.6 85.4 56.2 81.75 52.35 81.75 51 81.2 51 81.2 52.15 78.85 52.45 78.3 49.35 75.7 50.35 32.2 -0.2 0.4 11.6 47 59.25 50.75 58.05 59.85 60.5 60.15 85.7
Q 57.5390625 86.5330078125 56.45 90.6 54.15 87.05 52.5 85.5 51.05 84.15 50.45 84.6 49.85 85.85 49.65 86.55 49.45 87.4 49.55 88.5 48.2359375 87.1890625 46 86.8 45.45 87 46.95 89.15 47.7 90.15 51.55 94.7 53.3 96.75 54.35 97.4 56.05 98.55 57.7 97.7 58.1 97.55 59.05 96.5 60.3 95.05 60.5 94.9 61.3 94.15 61.55 94 61.9 93.8 62.1 94.15 62.6439453125 94.8951171875 62.9 95.95 63.1 96.65 64.05 97.75 65.05 99 65.7 99.05 67.65 97.85 69.45 97.45 70.85 97.15 70.85 97 69.026953125 105.2580078125 76.15 112.9 79.7580078125 104.5115234375 79.05 94.75
L 79.75 94.45
Q 79.759765625 106.0435546875 82.55 111.55
L 83.45 111.55
Q 82.1 108.15 81.4 103.15 80.75 98.15 80.65 94.05
L 81.2 93.8
Q 81.7 99.9 83.05 103.25 84.65 107.1 87.95 109
L 89.65 99 103.35 113.1 126.7 107.95 106.2 84.95
Q 109.344921875 82.844921875 111.25 79.5 112.55859375 76.8119140625 111.25 73.75
M 60.95 54.8
L 61.15 58.8 60.4 59.7 52.3 57.55 60.95 54.8 Z"/>
</g>
</defs>

<g filter="url(#Filter_1)" transform="matrix( 1, 0, 0, 1, 0,0) ">
<g transform="matrix( 1, 0, 0, 1, 261.85,235.15) ">
<g transform="matrix( 1, 0, 0, 1, 0,0) ">
<use xlink:href="#hitspot_satellite_0_Layer0_0_FILL"/>
</g>
</g>
</g>
</svg>
